<svg width="498" height="164" viewBox="0 0 498 164" fill="none" xmlns="http://www.w3.org/2000/svg">
<path fill-rule="evenodd" clip-rule="evenodd" d="M80.6065 80.6211L0 120.932V163.686L80.6065 123.375V80.6211Z" fill="#32A3EB"/>
<path fill-rule="evenodd" clip-rule="evenodd" d="M0 40.3108L80.6065 80.6217V123.376L0 83.0647V40.3108Z" fill="#107FC9"/>
<path fill-rule="evenodd" clip-rule="evenodd" d="M80.6065 0L0 40.3109V83.0648L80.6065 42.7539V0Z" fill="#32A3EB"/>
<path d="M161.139 39.601C165.411 39.601 169.297 40.224 172.798 41.47C176.299 42.716 179.681 44.7037 182.944 47.433C183.597 47.9077 183.923 48.59 183.923 49.48C183.923 49.9547 183.804 50.3997 183.567 50.815C183.33 51.171 183.003 51.438 182.588 51.616C182.469 52.0313 182.202 52.3577 181.787 52.595C181.372 52.8323 180.927 52.951 180.452 52.951C179.562 52.951 178.82 52.684 178.227 52.15C175.913 50.0733 173.391 48.5603 170.662 47.611C167.933 46.6617 164.758 46.187 161.139 46.187C156.155 46.187 151.527 47.522 147.255 50.192C142.983 52.8027 139.571 56.333 137.02 60.783C134.528 65.233 133.282 70.039 133.282 75.201C133.282 80.4817 134.528 85.347 137.02 89.797C139.512 94.247 142.894 97.7773 147.166 100.388C151.438 102.999 156.096 104.304 161.139 104.304C167.606 104.304 173.451 102.227 178.672 98.074C179.325 97.5993 179.977 97.362 180.63 97.362C181.52 97.362 182.291 97.6883 182.944 98.341C183.597 98.9343 183.923 99.7353 183.923 100.744C183.923 101.693 183.597 102.524 182.944 103.236C177.367 108.339 170.098 110.89 161.139 110.89C154.85 110.89 149.065 109.288 143.784 106.084C138.503 102.88 134.291 98.5487 131.146 93.09C128.061 87.6313 126.518 81.6683 126.518 75.201C126.518 68.793 128.061 62.8597 131.146 57.401C134.231 51.9423 138.414 47.611 143.695 44.407C148.976 41.203 154.79 39.601 161.139 39.601ZM216.27 60.872C220.957 60.872 225.17 61.94 228.908 64.076C232.646 66.212 235.583 69.1787 237.719 72.976C239.914 76.7733 241.012 81.0157 241.012 85.703C241.012 90.3903 239.944 94.6327 237.808 98.43C235.672 102.168 232.705 105.105 228.908 107.241C225.17 109.377 220.957 110.445 216.27 110.445C211.582 110.445 207.34 109.377 203.543 107.241C199.805 105.105 196.868 102.168 194.732 98.43C192.596 94.6327 191.528 90.3903 191.528 85.703C191.528 81.0157 192.596 76.7733 194.732 72.976C196.868 69.1787 199.805 66.212 203.543 64.076C207.34 61.94 211.582 60.872 216.27 60.872ZM216.27 67.102C212.888 67.102 209.802 67.903 207.014 69.505C204.284 71.107 202.119 73.332 200.517 76.18C198.974 78.9687 198.203 82.143 198.203 85.703C198.203 89.2037 198.974 92.378 200.517 95.226C202.119 98.0147 204.284 100.21 207.014 101.812C209.802 103.414 212.888 104.215 216.27 104.215C219.711 104.215 222.796 103.414 225.526 101.812C228.255 100.21 230.391 98.0147 231.934 95.226C233.476 92.378 234.248 89.2037 234.248 85.703C234.248 82.143 233.476 78.9687 231.934 76.18C230.391 73.332 228.255 71.107 225.526 69.505C222.796 67.903 219.711 67.102 216.27 67.102ZM295.102 61.317C296.111 61.317 296.941 61.6433 297.594 62.296C298.247 62.8893 298.573 63.6903 298.573 64.699V106.529C298.573 107.538 298.247 108.368 297.594 109.021C296.941 109.674 296.111 110 295.102 110C294.093 110 293.263 109.674 292.61 109.021C292.017 108.368 291.72 107.538 291.72 106.529V103.503C289.762 105.698 287.389 107.419 284.6 108.665C281.811 109.911 278.785 110.534 275.522 110.534C271.309 110.534 267.512 109.644 264.13 107.864C260.807 106.084 258.197 103.503 256.298 100.121C254.399 96.6797 253.45 92.5857 253.45 87.839V64.699C253.45 63.7497 253.776 62.9487 254.429 62.296C255.082 61.6433 255.883 61.317 256.832 61.317C257.841 61.317 258.671 61.6433 259.324 62.296C259.977 62.9487 260.303 63.7497 260.303 64.699V87.839C260.303 93.1197 261.757 97.1543 264.664 99.943C267.631 102.672 271.487 104.037 276.234 104.037C279.141 104.037 281.752 103.473 284.066 102.346C286.439 101.219 288.308 99.676 289.673 97.718C291.038 95.7007 291.72 93.4757 291.72 91.043V64.699C291.72 63.6903 292.017 62.8893 292.61 62.296C293.263 61.6433 294.093 61.317 295.102 61.317ZM336.555 60.783C339.047 60.783 341.005 61.1093 342.429 61.762C343.912 62.4147 344.654 63.3343 344.654 64.521C344.654 64.877 344.624 65.144 344.565 65.322C344.327 66.1527 343.942 66.7163 343.408 67.013C342.933 67.3097 342.251 67.458 341.361 67.458C340.827 67.458 339.907 67.3987 338.602 67.28C338.127 67.2207 337.415 67.191 336.466 67.191C332.016 67.191 328.367 68.3777 325.519 70.751C322.73 73.1243 321.336 76.2097 321.336 80.007V106.618C321.336 107.686 321.039 108.517 320.446 109.11C319.852 109.703 319.022 110 317.954 110C316.886 110 316.055 109.703 315.462 109.11C314.868 108.517 314.572 107.686 314.572 106.618V64.699C314.572 63.631 314.868 62.8003 315.462 62.207C316.055 61.6137 316.886 61.317 317.954 61.317C319.022 61.317 319.852 61.6137 320.446 62.207C321.039 62.8003 321.336 63.631 321.336 64.699V68.615C323.056 66.123 325.252 64.1947 327.922 62.83C330.592 61.4653 333.469 60.783 336.555 60.783ZM372.155 60.872C376.071 60.872 379.483 61.5543 382.39 62.919C385.298 64.2243 387.641 66.0637 389.421 68.437C389.896 69.2083 390.133 69.8907 390.133 70.484C390.133 71.4927 389.659 72.2937 388.709 72.887C388.294 73.1837 387.73 73.332 387.018 73.332C385.772 73.332 384.734 72.887 383.903 71.997C380.996 68.6743 377.021 67.013 371.977 67.013C368.714 67.013 366.103 67.6953 364.145 69.06C362.187 70.3653 361.208 72.0267 361.208 74.044C361.208 76.18 362.128 77.9007 363.967 79.206C365.807 80.452 369.07 81.4607 373.757 82.232C380.106 83.3 384.645 85.0503 387.374 87.483C390.104 89.8563 391.468 92.823 391.468 96.383C391.468 99.1123 390.638 101.545 388.976 103.681C387.374 105.817 385.12 107.478 382.212 108.665C379.305 109.852 376.012 110.445 372.333 110.445C368.655 110.445 365.124 109.822 361.742 108.576C358.36 107.33 355.631 105.58 353.554 103.325C352.961 102.613 352.664 101.931 352.664 101.278C352.664 100.269 353.139 99.3793 354.088 98.608C354.8 98.074 355.542 97.807 356.313 97.807C357.322 97.807 358.182 98.2223 358.894 99.053C360.318 100.714 362.187 101.99 364.501 102.88C366.875 103.77 369.485 104.215 372.333 104.215C376.487 104.215 379.602 103.503 381.678 102.079C383.755 100.655 384.823 98.786 384.882 96.472C384.882 94.336 383.844 92.556 381.767 91.132C379.691 89.708 376.398 88.64 371.888 87.928C366.074 86.9787 361.713 85.347 358.805 83.033C355.957 80.6597 354.533 77.8117 354.533 74.489C354.533 70.1577 356.195 66.8053 359.517 64.432C362.899 62.0587 367.112 60.872 372.155 60.872ZM424.048 60.872C428.438 60.872 432.325 61.9103 435.707 63.987C439.089 66.0043 441.699 68.8227 443.539 72.442C445.437 76.0613 446.387 80.185 446.387 84.813C446.387 85.7623 446.09 86.5337 445.497 87.127C444.903 87.661 444.132 87.928 443.183 87.928H407.227C407.701 92.7933 409.6 96.739 412.923 99.765C416.245 102.791 420.399 104.304 425.383 104.304C427.519 104.304 429.655 103.948 431.791 103.236C433.986 102.465 435.736 101.515 437.042 100.388C437.813 99.7947 438.614 99.498 439.445 99.498C440.097 99.498 440.75 99.7353 441.403 100.21C442.174 100.922 442.56 101.723 442.56 102.613C442.56 103.384 442.233 104.067 441.581 104.66C439.623 106.321 437.131 107.716 434.105 108.843C431.079 109.911 428.171 110.445 425.383 110.445C420.636 110.445 416.394 109.407 412.656 107.33C408.918 105.194 405.981 102.257 403.845 98.519C401.768 94.7217 400.73 90.4497 400.73 85.703C400.73 80.897 401.709 76.625 403.667 72.887C405.684 69.0897 408.443 66.1527 411.944 64.076C415.504 61.94 419.538 60.872 424.048 60.872ZM424.048 67.013C419.538 67.013 415.8 68.4073 412.834 71.196C409.867 73.9847 408.057 77.6633 407.405 82.232H439.979C439.504 77.6633 437.843 73.9847 434.995 71.196C432.147 68.4073 428.498 67.013 424.048 67.013ZM474.801 60.872C478.717 60.872 482.128 61.5543 485.036 62.919C487.943 64.2243 490.287 66.0637 492.067 68.437C492.541 69.2083 492.779 69.8907 492.779 70.484C492.779 71.4927 492.304 72.2937 491.355 72.887C490.939 73.1837 490.376 73.332 489.664 73.332C488.418 73.332 487.379 72.887 486.549 71.997C483.641 68.6743 479.666 67.013 474.623 67.013C471.359 67.013 468.749 67.6953 466.791 69.06C464.833 70.3653 463.854 72.0267 463.854 74.044C463.854 76.18 464.773 77.9007 466.613 79.206C468.452 80.452 471.715 81.4607 476.403 82.232C482.751 83.3 487.29 85.0503 490.02 87.483C492.749 89.8563 494.114 92.823 494.114 96.383C494.114 99.1123 493.283 101.545 491.622 103.681C490.02 105.817 487.765 107.478 484.858 108.665C481.95 109.852 478.657 110.445 474.979 110.445C471.3 110.445 467.77 109.822 464.388 108.576C461.006 107.33 458.276 105.58 456.2 103.325C455.606 102.613 455.31 101.931 455.31 101.278C455.31 100.269 455.784 99.3793 456.734 98.608C457.446 98.074 458.187 97.807 458.959 97.807C459.967 97.807 460.828 98.2223 461.54 99.053C462.964 100.714 464.833 101.99 467.147 102.88C469.52 103.77 472.131 104.215 474.979 104.215C479.132 104.215 482.247 103.503 484.324 102.079C486.4 100.655 487.468 98.786 487.528 96.472C487.528 94.336 486.489 92.556 484.413 91.132C482.336 89.708 479.043 88.64 474.534 87.928C468.719 86.9787 464.358 85.347 461.451 83.033C458.603 80.6597 457.179 77.8117 457.179 74.489C457.179 70.1577 458.84 66.8053 462.163 64.432C465.545 62.0587 469.757 60.872 474.801 60.872Z" fill="#333333"/>
</svg>
